<svg width="46" height="26" viewBox="0 0 46 26" fill="none" xmlns="http://www.w3.org/2000/svg">
<path d="M10.57 3.81997L3.64001 9.37002C2.86001 9.99002 2.35999 11.3 2.52999 12.28L3.85998 20.24C4.09998 21.66 5.45998 22.8101 6.89998 22.8101H18.1C19.53 22.8101 20.9 21.65 21.14 20.24L22.47 12.28C22.63 11.3 22.13 9.99002 21.36 9.37002L14.43 3.82998C13.36 2.96998 11.63 2.96997 10.57 3.81997Z" stroke="#6D8493" stroke-width="1.5" stroke-linecap="round" stroke-linejoin="round"/>
<path d="M10.38 15.38C11.65 14.17 13.35 14.17 14.62 15.38" stroke="#6D8493" stroke-width="1.5" stroke-linecap="round" stroke-linejoin="round"/>
<path d="M16.74 13.2601C16.2 12.7301 15.6 12.3201 14.98 12.0201C13.39 11.2601 11.61 11.2601 10.01 12.0201C9.39001 12.3201 8.8 12.7301 8.25 13.2601" stroke="#6D8493" stroke-width="1.5" stroke-linecap="round" stroke-linejoin="round"/>
<path d="M12.4955 18H12.5045" stroke="#6D8493" stroke-width="2" stroke-linecap="round" stroke-linejoin="round"/>
<path d="M44.5 7V19C44.5 23.8 43.5 25 39.5 25H33.5C29.5 25 28.5 23.8 28.5 19V7C28.5 2.2 29.5 1 33.5 1H39.5C43.5 1 44.5 2.2 44.5 7Z" stroke="#6D8493" stroke-width="1.5" stroke-linecap="round" stroke-linejoin="round"/>
<path d="M38.5 5.20001H34.5" stroke="#6D8493" stroke-width="1.5" stroke-linecap="round" stroke-linejoin="round"/>
<path d="M36.5 21.52C37.356 21.52 38.05 20.6872 38.05 19.66C38.05 18.6327 37.356 17.8 36.5 17.8C35.644 17.8 34.95 18.6327 34.95 19.66C34.95 20.6872 35.644 21.52 36.5 21.52Z" stroke="#6D8493" stroke-width="1.5" stroke-linecap="round" stroke-linejoin="round"/>
</svg>
