<svg xmlns="http://www.w3.org/2000/svg" width="60" height="60" viewBox="0 0 40 40"
class="MuiSvgIcon-root MuiSvgIcon-fontSizeMedium css-1wgtu1" focusable="false" aria-hidden="true">
    <path fill-rule="evenodd"
        d="M29 2H11C9.345 2 8 3.345 8 5v30c0 1.655 1.345 3 3 3h18c1.655 0 3-1.345 3-3V5c0-1.655-1.345-3-3-3zM11 3.5h18c.827 0 1.5.673 1.5 1.5v25.5h-21V5c0-.827.673-1.5 1.5-1.5zM30.5 32v3c0 .827-.673 1.5-1.5 1.5H11c-.827 0-1.5-.673-1.5-1.5v-3h21zm-8.25 1.5h-4.5c-.415 0-.75.335-.75.75s.335.75.75.75h4.5c.415 0 .75-.335.75-.75s-.335-.75-.75-.75zm-3-28.5h1.5c.415 0 .75.335.75.75 0 .368-.265.674-.615.738l-.135.012h-1.5c-.415 0-.75-.335-.75-.75 0-.368.265-.674.615-.738L19.25 5h1.5-1.5zm9 0c.414 0 .75.336.75.75s-.336.75-.75.75-.75-.336-.75-.75.336-.75.75-.75z">
    </path>
</svg>