<svg width="19" height="26" viewBox="0 0 19 26" fill="none" xmlns="http://www.w3.org/2000/svg">
<path d="M17.5 7V19C17.5 23.8 16.5 25 12.5 25H6.5C2.5 25 1.5 23.8 1.5 19V7C1.5 2.2 2.5 1 6.5 1H12.5C16.5 1 17.5 2.2 17.5 7Z" stroke="#6D8493" stroke-width="1.5" stroke-linecap="round" stroke-linejoin="round"/>
<path d="M11.5 5.20001H7.5" stroke="#6D8493" stroke-width="1.5" stroke-linecap="round" stroke-linejoin="round"/>
<path d="M9.50001 21.52C10.3561 21.52 11.05 20.6872 11.05 19.66C11.05 18.6327 10.3561 17.8 9.50001 17.8C8.64397 17.8 7.95001 18.6327 7.95001 19.66C7.95001 20.6872 8.64397 21.52 9.50001 21.52Z" stroke="#6D8493" stroke-width="1.5" stroke-linecap="round" stroke-linejoin="round"/>
</svg>
